<svg width="766" height="522" viewBox="0 0 766 522" fill="none" xmlns="http://www.w3.org/2000/svg">
<rect width="766" height="522" fill="white"/>
<rect x="196" y="44" width="481" height="190" fill="#64C49B"/>
<rect x="83" y="254" width="481" height="190" fill="#10442E"/>
<circle cx="252" cy="274" r="105" fill="#B65C5C"/>
<circle cx="246" cy="195" r="10" fill="black"/>
<circle cx="248.273" cy="190.909" r="4.09091" fill="white"/>
<path d="M246.834 334.579C231.784 334.405 240.094 299.354 246.13 281.851L271.808 269.551C280.938 265.178 315.39 284.052 331.475 294.036C331.475 294.036 333.977 304.142 327.807 310.789C321.637 317.436 309.295 311.197 303.895 307.247C304.108 311.759 301.41 321.588 288.92 324.802C276.429 328.017 271.508 325.067 270.609 323.191C268.955 327.059 261.883 334.753 246.834 334.579Z" fill="#B4B4B4" stroke="#AE9999"/>
<line x1="252.5" y1="291" x2="252.5" y2="326" stroke="black"/>
<line x1="268.454" y1="290.79" x2="280.454" y2="316.79" stroke="black"/>
<line x1="280.219" y1="282.551" x2="323.219" y2="303.551" stroke="black"/>
<path d="M133.843 159.762L198.84 192.682L183.524 213.055L133.843 159.762Z" fill="#FFDD86"/>
</svg>
